<?xml version="1.0" encoding="utf-8"?>
<!-- Generator: Adobe Illustrator 23.0.1, SVG Export Plug-In . SVG Version: 6.00 Build 0)  -->
<svg version="1.1" id="Layer_1" xmlns="http://www.w3.org/2000/svg" xmlns:xlink="http://www.w3.org/1999/xlink" x="0px" y="0px"
	 viewBox="0 0 1057.3 250" enable-background="new 0 0 1057.3 250" xml:space="preserve">
<g>
	
		<linearGradient id="SVGID_1_" gradientUnits="userSpaceOnUse" x1="118.8492" y1="1352.7468" x2="744.558" y2="914.6208" gradientTransform="matrix(1 0 0 1 0 -1006)">
		<stop  offset="0.2" style="stop-color:#8520DA"/>
		<stop  offset="0.2925" style="stop-color:#8123DB"/>
		<stop  offset="0.3885" style="stop-color:#742DDF"/>
		<stop  offset="0.4861" style="stop-color:#603DE4"/>
		<stop  offset="0.5849" style="stop-color:#4254ED"/>
		<stop  offset="0.6835" style="stop-color:#1D70F7"/>
		<stop  offset="0.75" style="stop-color:#0087FF"/>
		<stop  offset="0.95" style="stop-color:#00E474"/>
	</linearGradient>
	<path fill="url(#SVGID_1_)" d="M61.6,219.2C27.7,219.2,0,191.8,0,157.5V92.5h30.8v65.1c0,17.1,14,30.8,30.8,30.8
		c6.8,0,29.5-2.7,32.9-36.3c3.1-28.8,16.4-44.2,27.4-52.1c14.7-10.6,30.5-11.6,36.3-11.6c34.2,0,61.6,27.7,61.6,61.6v65.4H189V150
		c0-17.1-13.7-30.8-30.8-30.8c-6.8,0-29.1,2.7-32.9,36.3c-3.1,28.8-16.4,44.2-27.4,52.1C83.6,218.2,67.8,219.2,61.6,219.2z
		 M564,219.2c34.2,0,62-27.7,62-61.6V92.5h-30.8v65.1c0,17.1-14,30.8-30.8,30.8c-6.8,0-29.5-2.7-32.9-36.3
		c-3.1-28.8-16.4-44.2-27.4-52.1c-14.7-10.6-30.5-11.6-36.3-11.6c-33.9,0-62,27.7-62,61.6v65.4h30.8V150c0-17.1,14-30.8,30.8-30.8
		c6.8,0,29.5,2.7,32.9,36.3c3.1,28.8,16.4,44.2,27.4,52.1C542.5,218.2,558.2,219.2,564,219.2z M313,0c-34.2,0-62,27.7-62,61.6v153.8
		h30.8V61.6c0-16.8,14-30.8,30.8-30.8c17.1,0,30.8,13.7,30.8,30.8h30.8C374.7,27.7,347.3,0,313,0z M374.7,92.5v122.9h-30.8v-92.5
		H313V92.1h61.6V92.5z M30.8,61.6H0V30.8h30.8V61.6z M626,61.6h-30.8V30.8H626V61.6z M718.8,188.4v30.8c-34.2,0-62-27.4-62-61.6
		V30.8h123.6v30.8h-92.8v95.9C687.7,174.7,701.7,188.4,718.8,188.4z M873.3,92.5v65.1c0,28.8-19.9,52.7-46.2,59.6V250h-30.8v-32.5
		c-26.7-6.8-46.2-30.8-46.2-59.6V92.5h30.8v65.1c0,17.1,14,30.8,30.8,30.8c16.8,0,30.8-13.7,30.8-30.8V92.5H873.3z"/>
	<polygon fill="#323E48" enable-background="new    " points="1057.3,122.8 996.6,122.8 996.6,62.1 965.8,62.1 965.8,122.8 
		905,122.8 905,153.7 965.8,153.7 965.8,214.4 996.6,214.4 996.6,153.7 1057.3,153.7 	"/>
</g>
</svg>
